g collider2
v 1.856686 2 -3.35
v 1.925972 2 -3.35
v 1.925983 2 -0.3499399
v 1.856688 2 -0.2799778
v 1.856688 2 -0.2799778
v 1.925983 2 -0.3499399
v 4.925 2 -0.3499373
v 4.925 2 -0.2799752
v 1.925983 2.142764E-17 -0.3499399
v 1.925972 -2.384186E-07 -3.35
v 1.856686 -2.384186E-07 -3.35
v 1.856688 1.71437E-17 -0.2799779
v 4.925 2.142748E-17 -0.3499373
v 1.925983 2.142764E-17 -0.3499399
v 1.856688 1.71437E-17 -0.2799779
v 4.925 1.714354E-17 -0.2799752
v 1.856688 2 -0.2799778
v 1.856688 1.71437E-17 -0.2799779
v 1.856686 -2.384186E-07 -3.35
v 1.856686 2 -3.35
v 1.925972 2 -3.35
v 1.925972 -2.384186E-07 -3.35
v 1.925983 2.142764E-17 -0.3499399
v 1.925983 2 -0.3499399
v 1.856686 2 -3.35
v 1.856686 -2.384186E-07 -3.35
v 1.925972 -2.384186E-07 -3.35
v 1.925972 2 -3.35
v 4.925 2 -0.2799752
v 4.925 1.714354E-17 -0.2799752
v 1.856688 1.71437E-17 -0.2799779
v 1.856688 2 -0.2799778
v 4.925 2 -0.3499373
v 4.925 2.142748E-17 -0.3499373
v 4.925 1.714354E-17 -0.2799752
v 4.925 2 -0.2799752
v 1.925983 2 -0.3499399
v 1.925983 2.142764E-17 -0.3499399
v 4.925 2.142748E-17 -0.3499373
v 4.925 2 -0.3499373
vt 0.02088201 21.84058
vt 0.9899976 21.84058
vt 0.9901507 2.455332
vt 0.02090311 1.486262
vt 0.02024718 20.90516
vt 0.989318 19.93591
vt 0.9892809 0.5508233
vt 0.02021025 0.5508233
vt 0.9901507 2.455332
vt 0.9899976 21.84058
vt 0.02088201 21.84058
vt 0.02090311 1.486262
vt 0.9892809 0.5508233
vt 0.989318 19.93591
vt 0.02024718 20.90516
vt 0.02021025 0.5508233
vt 0.02090311 1.486262
vt 0.02090311 1.486262
vt 0.02088201 21.84058
vt 0.02088201 21.84058
vt 0.9899976 21.84058
vt 0.9899976 21.84058
vt 0.9901507 2.455332
vt 0.9901507 2.455332
vt 0.02088201 21.84058
vt 0.02088201 21.84058
vt 0.9899976 21.84058
vt 0.9899976 21.84058
vt 0.02021025 0.5508233
vt 0.02021025 0.5508233
vt 0.02024718 20.90516
vt 0.02024718 20.90516
vt 0.9892809 0.5508233
vt 0.9892809 0.5508233
vt 0.02021025 0.5508233
vt 0.02021025 0.5508233
vt 0.989318 19.93591
vt 0.989318 19.93591
vt 0.9892809 0.5508233
vt 0.9892809 0.5508233
vn 0 1 0
vn 0 1 0
vn 0 1 0
vn 0 1 0
vn 0 1 0
vn 0 1 0
vn 0 1 0
vn 0 1 0
vn 0 -1 0
vn 0 -1 0
vn 0 -1 0
vn 0 -1 0
vn 0 -1 0
vn 0 -1 0
vn 0 -1 0
vn 0 -1 0
vn -1 0 0
vn -1 0 0
vn -1 0 0
vn -1 0 0
vn 1 0 0
vn 1 0 0
vn 1 0 0
vn 1 0 0
vn 0 0 -1
vn 0 0 -1
vn 0 0 -1
vn 0 0 -1
vn 0 0 1
vn 0 0 1
vn 0 0 1
vn 0 0 1
vn 1 0 0
vn 1 0 0
vn 1 0 0
vn 1 0 0
vn 0 0 -1
vn 0 0 -1
vn 0 0 -1
vn 0 0 -1
g collider2_0
f 3/3/3 2/2/2 1/1/1
f 4/4/4 3/3/3 1/1/1
f 7/7/7 6/6/6 5/5/5
f 8/8/8 7/7/7 5/5/5
f 11/11/11 10/10/10 9/9/9
f 12/12/12 11/11/11 9/9/9
f 15/15/15 14/14/14 13/13/13
f 16/16/16 15/15/15 13/13/13
f 19/19/19 18/18/18 17/17/17
f 20/20/20 19/19/19 17/17/17
f 23/23/23 22/22/22 21/21/21
f 24/24/24 23/23/23 21/21/21
f 27/27/27 26/26/26 25/25/25
f 28/28/28 27/27/27 25/25/25
f 31/31/31 30/30/30 29/29/29
f 32/32/32 31/31/31 29/29/29
f 35/35/35 34/34/34 33/33/33
f 36/36/36 35/35/35 33/33/33
f 39/39/39 38/38/38 37/37/37
f 40/40/40 39/39/39 37/37/37
