g DingDianTingChe001
v -0.01039287 2 10
v -0.01039287 2 -11.29636
v 0.07247325 2 -11.29636
v 0.07247325 2 10
v 0.07247325 -2.384186E-07 -11.29636
v -0.01039287 -2.384186E-07 -11.29636
v -0.01039287 -2.384186E-07 10
v 0.07247325 -2.384186E-07 10
v 0.07247325 2 10
v 0.07247325 -2.384186E-07 10
v -0.01039287 -2.384186E-07 10
v -0.01039287 2 10
v 0.07247325 2 -11.29636
v 0.07247325 -2.384186E-07 -11.29636
v 0.07247325 -2.384186E-07 10
v 0.07247325 2 10
v -0.01039287 2 -11.29636
v -0.01039287 -2.384186E-07 -11.29636
v 0.07247325 -2.384186E-07 -11.29636
v 0.07247325 2 -11.29636
v -0.01039287 2 10
v -0.01039287 -2.384186E-07 10
v -0.01039287 -2.384186E-07 -11.29636
v -0.01039287 2 -11.29636
v 0.07247327 2 -11.29636
v 0.07247327 -2.384186E-07 -11.29636
v -0.01039289 -2.384186E-07 -11.29636
v -0.01039289 2 -11.29636
vt 0.01498294 -68.48335
vt 0.01498294 62.00741
vt 0.9936742 62.00741
vt 0.9936742 -68.48335
vt 0.9936742 62.00741
vt 0.01498294 62.00741
vt 0.01498294 -68.48335
vt 0.9936742 -68.48335
vt 0.9936742 -68.48335
vt 0.9936742 -68.48335
vt 0.01498294 -68.48335
vt 0.01498294 -68.48335
vt 0.9936742 62.00741
vt 0.9936742 62.00741
vt 0.9936742 -68.48335
vt 0.9936742 -68.48335
vt 0.01498294 62.00741
vt 0.01498294 62.00741
vt 0.9936742 62.00741
vt 0.9936742 62.00741
vt 0.01498294 -68.48335
vt 0.01498294 -68.48335
vt 0.01498294 62.00741
vt 0.01498294 62.00741
vt 0.9875984 37.38069
vt 0.9875984 37.38069
vt 0.06155852 37.38069
vt 0.06155852 37.38069
vn 0 1 0
vn 0 1 0
vn 0 1 0
vn 0 1 0
vn 0 -1 0
vn 0 -1 0
vn 0 -1 0
vn 0 -1 0
vn 0 0 1
vn 0 0 1
vn 0 0 1
vn 0 0 1
vn 1 0 0
vn 1 0 0
vn 1 0 0
vn 1 0 0
vn 0 0 -1
vn 0 0 -1
vn 0 0 -1
vn 0 0 -1
vn -1 0 0
vn -1 0 0
vn -1 0 0
vn -1 0 0
vn 0 0 1
vn 0 0 1
vn 0 0 1
vn 0 0 1
g DingDianTingChe001_0
f 3/3/3 2/2/2 1/1/1
f 4/4/4 3/3/3 1/1/1
f 7/7/7 6/6/6 5/5/5
f 8/8/8 7/7/7 5/5/5
f 11/11/11 10/10/10 9/9/9
f 12/12/12 11/11/11 9/9/9
f 15/15/15 14/14/14 13/13/13
f 16/16/16 15/15/15 13/13/13
f 19/19/19 18/18/18 17/17/17
f 20/20/20 19/19/19 17/17/17
f 23/23/23 22/22/22 21/21/21
f 24/24/24 23/23/23 21/21/21
f 27/27/27 26/26/26 25/25/25
f 28/28/28 27/27/27 25/25/25
