g QuXianXingShi
v -7.5 -1.430511E-05 5.95029E-06
v -7.463885 -1.430511E-05 0.7351348
v -7.613163 -1.430511E-05 0.7498375
v -7.65 -1.430511E-05 6.070692E-06
v -7.503006 -1.430511E-05 1.492447
v -7.355889 -1.430511E-05 1.463184
v -7.320591 -1.430511E-05 2.220685
v -7.177051 -1.430511E-05 2.177142
v -7.067676 -1.430511E-05 2.927535
v -6.929094 -1.430511E-05 2.870132
v -6.746694 -1.430511E-05 3.606192
v -6.614406 -1.430511E-05 3.535482
v -6.360738 -1.430511E-05 4.250119
v -6.236018 -1.430511E-05 4.166783
v -5.913525 -1.430511E-05 4.853115
v -5.797574 -1.430511E-05 4.757956
v -5.409361 -1.430511E-05 5.409373
v -5.303295 -1.430511E-05 5.303307
v -4.853103 -1.430511E-05 5.913535
v -4.757944 -1.430511E-05 5.797583
v -4.250108 -1.430511E-05 6.360746
v -4.166772 -1.430511E-05 6.236025
v -3.606181 -1.430511E-05 6.7467
v -3.535472 -1.430511E-05 6.614411
v -2.927526 -1.430511E-05 7.06768
v -2.870124 -1.430511E-05 6.929098
v -2.220677 -1.430511E-05 7.320594
v -2.177134 -1.430511E-05 7.177053
v -1.492441 -1.430511E-05 7.503007
v -1.463178 -1.430511E-05 7.35589
v -0.7498331 -1.430511E-05 7.613163
v -0.7351305 -1.430511E-05 7.463885
v -3.556579E-06 -1.430511E-05 7.65
v -3.486842E-06 -1.430511E-05 7.5
v 0.7498261 -1.430511E-05 7.613163
v 0.7351236 -1.430511E-05 7.463886
v 1.492435 -1.430511E-05 7.503009
v 1.463171 -1.430511E-05 7.355891
v 2.22067 -1.430511E-05 7.320596
v 2.177127 -1.430511E-05 7.177055
v 2.927519 -1.430511E-05 7.067682
v 2.870117 -1.430511E-05 6.9291
v 3.606175 -1.430511E-05 6.746703
v 3.535466 -1.430511E-05 6.614415
v 4.250102 -1.430511E-05 6.36075
v 4.166767 -1.430511E-05 6.236029
v 4.853097 -1.430511E-05 5.913539
v 4.757939 -1.430511E-05 5.797587
v 5.409377 -5.483627E-06 5.409364
v 5.303311 -5.483627E-06 5.303298
v 5.652987 3.33786E-06 5.188574
v 5.557829 3.33786E-06 5.072622
v 5.917045 3.33786E-06 4.992737
v 5.833709 3.33786E-06 4.868016
v 6.199025 3.33786E-06 4.823724
v 6.128316 3.33786E-06 4.691436
v 6.496215 3.33786E-06 4.683165
v 6.438812 3.33786E-06 4.544583
v 6.80575 3.33786E-06 4.572412
v 6.762208 3.33786E-06 4.428871
v 7.12465 3.33786E-06 4.492532
v 7.095387 3.33786E-06 4.345414
v 7.449845 3.33786E-06 4.444294
v 7.435143 3.33786E-06 4.295016
v 7.778202 3.33786E-06 4.428164
v 7.778202 3.33786E-06 4.278163
v 8.106559 3.33786E-06 4.444294
v 8.121262 3.33786E-06 4.295017
v 8.431753 3.33786E-06 4.492533
v 8.461017 3.33786E-06 4.345415
v 8.750653 3.33786E-06 4.572413
v 8.794196 3.33786E-06 4.428872
v 9.060188 3.33786E-06 4.683167
v 9.117591 3.33786E-06 4.544584
v 9.357378 3.33786E-06 4.823727
v 9.428087 3.33786E-06 4.691438
v 9.639359 3.33786E-06 4.992739
v 9.722694 3.33786E-06 4.868018
v 9.903416 3.33786E-06 5.188577
v 9.998574 3.33786E-06 5.072625
v 10.14701 3.33786E-06 5.409353
v 10.25307 3.33786E-06 5.303287
v 10.36778 3.33786E-06 5.652944
v 10.48373 3.33786E-06 5.557784
v 10.56362 3.33786E-06 5.917
v 10.68834 3.33786E-06 5.833665
v 10.73263 3.33786E-06 6.198981
v 10.86492 3.33786E-06 6.128272
v 10.87319 3.33786E-06 6.496171
v 11.01178 3.33786E-06 6.438768
v 10.98395 3.33786E-06 6.805707
v 11.12749 3.33786E-06 6.762164
v 11.06383 3.33786E-06 7.124608
v 11.21095 3.33786E-06 7.095345
v 11.11207 3.33786E-06 7.449803
v 11.26135 3.33786E-06 7.435101
v 11.1282 3.33786E-06 7.778161
v 11.2782 3.33786E-06 7.778161
v -3.35 3.33786E-06 2.688973E-06
v -3.333869 3.33786E-06 0.3283602
v -3.483146 3.33786E-06 0.3430629
v -3.5 3.33786E-06 2.809375E-06
v -3.432748 3.33786E-06 0.6828191
v -3.28563 3.33786E-06 0.6535555
v -3.34929 3.33786E-06 1.015999
v -3.205749 3.33786E-06 0.9724566
v -3.233577 3.33786E-06 1.339395
v -3.094995 3.33786E-06 1.281993
v -3.086723 3.33786E-06 1.649892
v -2.954435 3.33786E-06 1.579182
v -2.910142 3.33786E-06 1.944499
v -2.785421 3.33786E-06 1.861163
v -2.705534 3.33786E-06 2.220379
v -2.589583 3.33786E-06 2.12522
v -2.474871 3.33786E-06 2.474876
v -2.368805 3.33786E-06 2.36881
v -2.220374 3.33786E-06 2.705538
v -2.125215 3.33786E-06 2.589587
v -1.944494 3.33786E-06 2.910145
v -1.861158 3.33786E-06 2.785424
v -1.649887 3.33786E-06 3.086725
v -1.579177 3.33786E-06 2.954437
v -1.339391 3.33786E-06 3.233579
v -1.281989 3.33786E-06 3.094997
v -1.015996 3.33786E-06 3.349291
v -0.9724532 3.33786E-06 3.20575
v -0.6828163 3.33786E-06 3.432748
v -0.6535528 3.33786E-06 3.28563
v -0.3430609 3.33786E-06 3.483146
v -0.3283583 3.33786E-06 3.333869
v -1.627193E-06 3.33786E-06 3.5
v -1.557456E-06 3.33786E-06 3.35
v 0.3430577 3.33786E-06 3.483146
v 0.3283552 3.33786E-06 3.333869
v 0.6828132 3.33786E-06 3.432749
v 0.6535497 3.33786E-06 3.285631
v 1.015993 3.33786E-06 3.349292
v 0.9724502 3.33786E-06 3.205751
v 1.339388 3.33786E-06 3.23358
v 1.281986 3.33786E-06 3.094998
v 1.649884 3.33786E-06 3.086727
v 1.579175 3.33786E-06 2.954438
v 1.944491 3.33786E-06 2.910147
v 1.861156 3.33786E-06 2.785426
v 2.220371 3.33786E-06 2.70554
v 2.125213 3.33786E-06 2.589589
v 2.47489 -5.483627E-06 2.474864
v 2.368824 -5.483627E-06 2.368798
v 3.020262 -1.430511E-05 1.980575
v 2.925103 -1.430511E-05 1.864623
v 3.611434 -1.430511E-05 1.542133
v 3.528099 -1.430511E-05 1.417413
v 4.242734 -1.430511E-05 1.163748
v 4.172025 -1.430511E-05 1.031459
v 4.908084 -1.430511E-05 0.8490624
v 4.850681 -1.430511E-05 0.7104802
v 5.601073 -1.430511E-05 0.6011071
v 5.557531 -1.430511E-05 0.4575663
v 6.31503 -1.430511E-05 0.4222717
v 6.285767 -1.430511E-05 0.2751541
v 7.043077 -1.430511E-05 0.3142772
v 7.028375 -1.430511E-05 0.1649995
v 7.778204 -1.430511E-05 0.278163
v 7.778204 -1.430511E-05 0.1281629
v 8.513331 -1.430511E-05 0.3142776
v 8.528034 -1.430511E-05 0.165
v 9.241379 -1.430511E-05 0.4222732
v 9.270642 -1.430511E-05 0.2751555
v 9.955336 -1.430511E-05 0.6011105
v 9.998878 -1.430511E-05 0.4575696
v 10.64832 -1.430511E-05 0.8490653
v 10.70573 -1.430511E-05 0.7104836
v 11.31367 -1.430511E-05 1.163752
v 11.38438 -1.430511E-05 1.031464
v 11.94497 -1.430511E-05 1.542138
v 12.02831 -1.430511E-05 1.417418
v 12.53614 -1.430511E-05 1.980581
v 12.6313 -1.430511E-05 1.864629
v 13.0815 -1.430511E-05 2.474857
v 13.18756 -1.430511E-05 2.368791
v 13.57577 -1.430511E-05 3.020208
v 13.69173 -1.430511E-05 2.925049
v 14.01422 -1.430511E-05 3.611381
v 14.13894 -1.430511E-05 3.528045
v 14.39261 -1.430511E-05 4.242682
v 14.52489 -1.430511E-05 4.171972
v 14.70729 -1.430511E-05 4.908031
v 14.84588 -1.430511E-05 4.850629
v 14.95525 -1.430511E-05 5.601023
v 15.09879 -1.430511E-05 5.55748
v 15.13409 -1.430511E-05 6.31498
v 15.28121 -1.430511E-05 6.285717
v 15.24208 -1.430511E-05 7.043029
v 15.39136 -1.430511E-05 7.028327
v 15.2782 -1.430511E-05 7.778158
v 15.4282 -1.430511E-05 7.778158
vt 0.02033665 -84.23909
vt 0.02033665 -79.42321
vt 0.988908 -79.42321
vt 0.988908 -84.23909
vt 0.988908 -74.62315
vt 0.02033665 -74.62315
vt 0.988908 -69.82311
vt 0.02033665 -69.82311
vt 0.988908 -65.02306
vt 0.02033665 -65.02306
vt 0.988908 -60.22303
vt 0.02033665 -60.22303
vt 0.988908 -55.423
vt 0.02033665 -55.423
vt 0.988908 -50.62295
vt 0.02033665 -50.62295
vt 0.9889153 -45.82291
vt 0.02033665 -45.82291
vt 0.9889153 -41.02288
vt 0.02033665 -41.02288
vt 0.9889153 -36.22285
vt 0.02033665 -36.22285
vt 0.9889153 -31.42282
vt 0.02033665 -31.42282
vt 0.9889153 -26.6228
vt 0.02033665 -26.6228
vt 0.9889153 -21.82277
vt 0.02034555 -21.82277
vt 0.9889153 -17.02274
vt 0.02034555 -17.02274
vt 0.9889153 -12.2227
vt 0.02034555 -12.2227
vt 0.9889153 -7.422677
vt 0.02034555 -7.422677
vt 0.9889153 -2.622646
vt 0.02034555 -2.622646
vt 0.9889153 2.177384
vt 0.02034555 2.177384
vt 0.9889153 6.977414
vt 0.02034555 6.977414
vt 0.9889153 11.77744
vt 0.02034555 11.77744
vt 0.9889153 16.57747
vt 0.02034555 16.57747
vt 0.9889153 21.3775
vt 0.02034555 21.3775
vt 0.9889153 26.17761
vt 0.02034555 26.17761
vt 0.9889153 29.61541
vt 0.02034555 29.61541
vt 0.9889153 31.78581
vt 0.02034555 31.78581
vt 0.9889153 33.95612
vt 0.02034555 33.95612
vt 0.9889153 36.12643
vt 0.02034555 36.12643
vt 0.9889153 38.29673
vt 0.02034555 38.29673
vt 0.9889153 40.46705
vt 0.02034555 40.46705
vt 0.9889153 42.63735
vt 0.02034555 42.63735
vt 0.9889153 44.80767
vt 0.02034555 44.80767
vt 0.9889153 46.97797
vt 0.02034555 46.97797
vt 0.9889153 49.14829
vt 0.02034555 49.14829
vt 0.9889153 51.31859
vt 0.02034555 51.31859
vt 0.9889153 53.48891
vt 0.02034555 53.48891
vt 0.9889153 55.65921
vt 0.02034555 55.65921
vt 0.9889153 57.82953
vt 0.02034555 57.82953
vt 0.9889153 59.99985
vt 0.02034555 59.99985
vt 0.9889153 62.17015
vt 0.02034555 62.17015
vt 0.9889153 64.34048
vt 0.02034555 64.34048
vt 0.9889153 66.51079
vt 0.02034555 66.51079
vt 0.9889153 68.68111
vt 0.02034555 68.68111
vt 0.9889153 70.85143
vt 0.02034555 70.85143
vt 0.9889153 73.02174
vt 0.02034555 73.02174
vt 0.9889153 75.19206
vt 0.02034555 75.19206
vt 0.9889153 77.36237
vt 0.0203549 77.36237
vt 0.9889153 79.53267
vt 0.0203549 79.53267
vt 0.9889153 81.75052
vt 0.0203549 81.75052
vt 0.02038734 -84.23974
vt 0.02038734 -82.05358
vt 0.9889588 -82.05358
vt 0.9889497 -84.23974
vt 0.9889588 -79.88326
vt 0.02038734 -79.88326
vt 0.9889588 -77.71295
vt 0.02038734 -77.71295
vt 0.9889588 -75.54263
vt 0.02038734 -75.54263
vt 0.9889588 -73.37232
vt 0.02038734 -73.37232
vt 0.9889588 -71.20199
vt 0.02038734 -71.20199
vt 0.9889588 -69.03168
vt 0.02038734 -69.03168
vt 0.9889588 -66.86137
vt 0.02038734 -66.86137
vt 0.9889588 -64.69105
vt 0.02038734 -64.69105
vt 0.9889588 -62.52074
vt 0.02038734 -62.52074
vt 0.9889588 -60.35043
vt 0.02038734 -60.35043
vt 0.9889588 -58.18013
vt 0.02038734 -58.18013
vt 0.9889588 -56.00982
vt 0.02038734 -56.00982
vt 0.9889588 -53.8395
vt 0.02038734 -53.8395
vt 0.9889588 -51.66919
vt 0.02038734 -51.66919
vt 0.9889588 -49.49888
vt 0.02038734 -49.49888
vt 0.9889588 -47.32858
vt 0.02038734 -47.32858
vt 0.9889588 -45.15826
vt 0.02038734 -45.15826
vt 0.9889588 -42.98795
vt 0.02038734 -42.98795
vt 0.9889588 -40.81764
vt 0.02038734 -40.81764
vt 0.9889588 -38.64733
vt 0.02038734 -38.64733
vt 0.9889588 -36.47702
vt 0.02038734 -36.47702
vt 0.9889588 -34.30663
vt 0.02038734 -34.30663
vt 0.9889588 -30.86882
vt 0.02038734 -30.86882
vt 0.9889588 -26.0687
vt 0.02038734 -26.0687
vt 0.9889588 -21.26868
vt 0.02038734 -21.26868
vt 0.9889588 -16.46865
vt 0.02038734 -16.46865
vt 0.9889588 -11.66862
vt 0.02038734 -11.66862
vt 0.9889588 -6.868586
vt 0.0203967 -6.868586
vt 0.9889588 -2.068555
vt 0.0203967 -2.068555
vt 0.9889588 2.731482
vt 0.0203967 2.731482
vt 0.9889588 7.531512
vt 0.0203967 7.531512
vt 0.9889588 12.33154
vt 0.0203967 12.33154
vt 0.9889588 17.13158
vt 0.0203967 17.13158
vt 0.988966 21.9316
vt 0.0203967 21.9316
vt 0.988966 26.73164
vt 0.0203967 26.73164
vt 0.988966 31.53166
vt 0.0203967 31.53166
vt 0.988966 36.33169
vt 0.0203967 36.33169
vt 0.988966 41.13172
vt 0.0203967 41.13172
vt 0.988966 45.93175
vt 0.0203967 45.93175
vt 0.988966 50.73179
vt 0.0203967 50.73179
vt 0.988966 55.53184
vt 0.0203967 55.53184
vt 0.988966 60.33188
vt 0.0203967 60.33188
vt 0.988966 65.13193
vt 0.0203967 65.13193
vt 0.988966 69.93197
vt 0.0203967 69.93197
vt 0.988966 74.73202
vt 0.0203967 74.73202
vt 0.988966 79.53205
vt 0.0203967 79.53205
vt 0.988966 84.37961
vt 0.0203967 84.37961
vn 0 1 0
vn 0 1 0
vn 0 1 0
vn 0 1 0
vn 0 1 0
vn 0 1 0
vn 0 1 0
vn 0 1 0
vn 0 1 0
vn 0 1 0
vn 0 1 0
vn 0 1 0
vn 0 1 0
vn 0 1 0
vn 0 1 0
vn 0 1 0
vn 0 1 0
vn 0 1 0
vn 0 1 0
vn 0 1 0
vn 0 1 0
vn 0 1 0
vn 0 1 0
vn 0 1 0
vn 0 1 0
vn 0 1 0
vn 0 1 0
vn 0 1 0
vn 0 1 0
vn 0 1 0
vn 0 1 0
vn 0 1 0
vn 0 1 0
vn 0 1 0
vn 0 1 0
vn 0 1 0
vn 0 1 0
vn 0 1 0
vn 0 1 0
vn 0 1 0
vn 0 1 0
vn 0 1 0
vn 0 1 0
vn 0 1 0
vn 0 1 0
vn 0 1 0
vn 0 1 0
vn 0 1 0
vn -1.428537E-05 1 1.294745E-05
vn -1.395241E-05 1 1.264568E-05
vn 0 1 0
vn 0 1 0
vn 0 1 0
vn 0 1 0
vn 0 1 0
vn 0 1 0
vn 0 1 0
vn 0 1 0
vn 0 1 0
vn 0 1 0
vn 0 1 0
vn 0 1 0
vn 0 1 0
vn 0 1 0
vn 0 1 0
vn 0 1 0
vn 0 1 0
vn 0 1 0
vn 0 1 0
vn 0 1 0
vn 0 1 0
vn 0 1 0
vn 0 1 0
vn 0 1 0
vn 0 1 0
vn 0 1 0
vn 0 1 0
vn 0 1 0
vn 0 1 0
vn 0 1 0
vn 0 1 0
vn 0 1 0
vn 0 1 0
vn 0 1 0
vn 0 1 0
vn 0 1 0
vn 0 1 0
vn 0 1 0
vn 0 1 0
vn 0 1 0
vn 0 1 0
vn 0 1 0
vn 0 1 0
vn 0 1 0
vn 0 1 0
vn 0 1 0
vn 0 1 0
vn 0 1 0
vn 0 1 0
vn 0 1 0
vn 0 1 0
vn 0 1 0
vn 0 1 0
vn 0 1 0
vn 0 1 0
vn 0 1 0
vn 0 1 0
vn 0 1 0
vn 0 1 0
vn 0 1 0
vn 0 1 0
vn 0 1 0
vn 0 1 0
vn 0 1 0
vn 0 1 0
vn 0 1 0
vn 0 1 0
vn 0 1 0
vn 0 1 0
vn 0 1 0
vn 0 1 0
vn 0 1 0
vn 0 1 0
vn 0 1 0
vn 0 1 0
vn 0 1 0
vn 0 1 0
vn 0 1 0
vn 0 1 0
vn 0 1 0
vn 0 1 0
vn 0 1 0
vn 0 1 0
vn 0 1 0
vn 0 1 0
vn 0 1 0
vn 0 1 0
vn 0 1 0
vn 0 1 0
vn 0 1 0
vn 0 1 0
vn 0 1 0
vn 0 1 0
vn 0 1 0
vn 0 1 0
vn 0 1 0
vn 1.395241E-05 1 -1.264567E-05
vn 1.428536E-05 1 -1.294744E-05
vn 0 1 0
vn 0 1 0
vn 0 1 0
vn 0 1 0
vn 0 1 0
vn 0 1 0
vn 0 1 0
vn 0 1 0
vn 0 1 0
vn 0 1 0
vn 0 1 0
vn 0 1 0
vn 0 1 0
vn 0 1 0
vn 0 1 0
vn 0 1 0
vn 0 1 0
vn 0 1 0
vn 0 1 0
vn 0 1 0
vn 0 1 0
vn 0 1 0
vn 0 1 0
vn 0 1 0
vn 0 1 0
vn 0 1 0
vn 0 1 0
vn 0 1 0
vn 0 1 0
vn 0 1 0
vn 0 1 0
vn 0 1 0
vn 0 1 0
vn 0 1 0
vn 0 1 0
vn 0 1 0
vn 0 1 0
vn 0 1 0
vn 0 1 0
vn 0 1 0
vn 0 1 0
vn 0 1 0
vn 0 1 0
vn 0 1 0
vn 0 1 0
vn 0 1 0
vn 0 1 0
vn 0 1 0
g QuXianXingShi_0
f 3/3/3 2/2/2 1/1/1
f 4/4/4 3/3/3 1/1/1
f 3/3/3 5/5/5 2/2/2
f 5/5/5 6/6/6 2/2/2
f 5/5/5 7/7/7 6/6/6
f 7/7/7 8/8/8 6/6/6
f 7/7/7 9/9/9 8/8/8
f 9/9/9 10/10/10 8/8/8
f 9/9/9 11/11/11 10/10/10
f 11/11/11 12/12/12 10/10/10
f 11/11/11 13/13/13 12/12/12
f 13/13/13 14/14/14 12/12/12
f 13/13/13 15/15/15 14/14/14
f 15/15/15 16/16/16 14/14/14
f 15/15/15 17/17/17 16/16/16
f 17/17/17 18/18/18 16/16/16
f 17/17/17 19/19/19 18/18/18
f 19/19/19 20/20/20 18/18/18
f 19/19/19 21/21/21 20/20/20
f 21/21/21 22/22/22 20/20/20
f 21/21/21 23/23/23 22/22/22
f 23/23/23 24/24/24 22/22/22
f 23/23/23 25/25/25 24/24/24
f 25/25/25 26/26/26 24/24/24
f 25/25/25 27/27/27 26/26/26
f 27/27/27 28/28/28 26/26/26
f 27/27/27 29/29/29 28/28/28
f 29/29/29 30/30/30 28/28/28
f 29/29/29 31/31/31 30/30/30
f 31/31/31 32/32/32 30/30/30
f 31/31/31 33/33/33 32/32/32
f 33/33/33 34/34/34 32/32/32
f 33/33/33 35/35/35 34/34/34
f 35/35/35 36/36/36 34/34/34
f 35/35/35 37/37/37 36/36/36
f 37/37/37 38/38/38 36/36/36
f 37/37/37 39/39/39 38/38/38
f 39/39/39 40/40/40 38/38/38
f 39/39/39 41/41/41 40/40/40
f 41/41/41 42/42/42 40/40/40
f 41/41/41 43/43/43 42/42/42
f 43/43/43 44/44/44 42/42/42
f 43/43/43 45/45/45 44/44/44
f 45/45/45 46/46/46 44/44/44
f 45/45/45 47/47/47 46/46/46
f 47/47/47 48/48/48 46/46/46
f 47/47/47 49/49/49 48/48/48
f 49/49/49 50/50/50 48/48/48
f 50/50/50 49/49/49 51/51/51
f 52/52/52 50/50/50 51/51/51
f 52/52/52 51/51/51 53/53/53
f 54/54/54 52/52/52 53/53/53
f 54/54/54 53/53/53 55/55/55
f 56/56/56 54/54/54 55/55/55
f 56/56/56 55/55/55 57/57/57
f 58/58/58 56/56/56 57/57/57
f 58/58/58 57/57/57 59/59/59
f 60/60/60 58/58/58 59/59/59
f 60/60/60 59/59/59 61/61/61
f 62/62/62 60/60/60 61/61/61
f 62/62/62 61/61/61 63/63/63
f 64/64/64 62/62/62 63/63/63
f 64/64/64 63/63/63 65/65/65
f 66/66/66 64/64/64 65/65/65
f 66/66/66 65/65/65 67/67/67
f 68/68/68 66/66/66 67/67/67
f 68/68/68 67/67/67 69/69/69
f 70/70/70 68/68/68 69/69/69
f 70/70/70 69/69/69 71/71/71
f 72/72/72 70/70/70 71/71/71
f 72/72/72 71/71/71 73/73/73
f 74/74/74 72/72/72 73/73/73
f 74/74/74 73/73/73 75/75/75
f 76/76/76 74/74/74 75/75/75
f 76/76/76 75/75/75 77/77/77
f 78/78/78 76/76/76 77/77/77
f 78/78/78 77/77/77 79/79/79
f 80/80/80 78/78/78 79/79/79
f 80/80/80 79/79/79 81/81/81
f 82/82/82 80/80/80 81/81/81
f 82/82/82 81/81/81 83/83/83
f 84/84/84 82/82/82 83/83/83
f 84/84/84 83/83/83 85/85/85
f 86/86/86 84/84/84 85/85/85
f 86/86/86 85/85/85 87/87/87
f 88/88/88 86/86/86 87/87/87
f 88/88/88 87/87/87 89/89/89
f 90/90/90 88/88/88 89/89/89
f 90/90/90 89/89/89 91/91/91
f 92/92/92 90/90/90 91/91/91
f 92/92/92 91/91/91 93/93/93
f 94/94/94 92/92/92 93/93/93
f 94/94/94 93/93/93 95/95/95
f 96/96/96 94/94/94 95/95/95
f 96/96/96 95/95/95 97/97/97
f 98/98/98 96/96/96 97/97/97
f 101/101/101 100/100/100 99/99/99
f 102/102/102 101/101/101 99/99/99
f 101/101/101 103/103/103 100/100/100
f 103/103/103 104/104/104 100/100/100
f 103/103/103 105/105/105 104/104/104
f 105/105/105 106/106/106 104/104/104
f 105/105/105 107/107/107 106/106/106
f 107/107/107 108/108/108 106/106/106
f 107/107/107 109/109/109 108/108/108
f 109/109/109 110/110/110 108/108/108
f 109/109/109 111/111/111 110/110/110
f 111/111/111 112/112/112 110/110/110
f 111/111/111 113/113/113 112/112/112
f 113/113/113 114/114/114 112/112/112
f 113/113/113 115/115/115 114/114/114
f 115/115/115 116/116/116 114/114/114
f 115/115/115 117/117/117 116/116/116
f 117/117/117 118/118/118 116/116/116
f 117/117/117 119/119/119 118/118/118
f 119/119/119 120/120/120 118/118/118
f 119/119/119 121/121/121 120/120/120
f 121/121/121 122/122/122 120/120/120
f 121/121/121 123/123/123 122/122/122
f 123/123/123 124/124/124 122/122/122
f 123/123/123 125/125/125 124/124/124
f 125/125/125 126/126/126 124/124/124
f 125/125/125 127/127/127 126/126/126
f 127/127/127 128/128/128 126/126/126
f 127/127/127 129/129/129 128/128/128
f 129/129/129 130/130/130 128/128/128
f 129/129/129 131/131/131 130/130/130
f 131/131/131 132/132/132 130/130/130
f 131/131/131 133/133/133 132/132/132
f 133/133/133 134/134/134 132/132/132
f 133/133/133 135/135/135 134/134/134
f 135/135/135 136/136/136 134/134/134
f 135/135/135 137/137/137 136/136/136
f 137/137/137 138/138/138 136/136/136
f 137/137/137 139/139/139 138/138/138
f 139/139/139 140/140/140 138/138/138
f 139/139/139 141/141/141 140/140/140
f 141/141/141 142/142/142 140/140/140
f 141/141/141 143/143/143 142/142/142
f 143/143/143 144/144/144 142/142/142
f 143/143/143 145/145/145 144/144/144
f 145/145/145 146/146/146 144/144/144
f 145/145/145 147/147/147 146/146/146
f 147/147/147 148/148/148 146/146/146
f 148/148/148 147/147/147 149/149/149
f 150/150/150 148/148/148 149/149/149
f 150/150/150 149/149/149 151/151/151
f 152/152/152 150/150/150 151/151/151
f 152/152/152 151/151/151 153/153/153
f 154/154/154 152/152/152 153/153/153
f 154/154/154 153/153/153 155/155/155
f 156/156/156 154/154/154 155/155/155
f 156/156/156 155/155/155 157/157/157
f 158/158/158 156/156/156 157/157/157
f 158/158/158 157/157/157 159/159/159
f 160/160/160 158/158/158 159/159/159
f 160/160/160 159/159/159 161/161/161
f 162/162/162 160/160/160 161/161/161
f 162/162/162 161/161/161 163/163/163
f 164/164/164 162/162/162 163/163/163
f 164/164/164 163/163/163 165/165/165
f 166/166/166 164/164/164 165/165/165
f 166/166/166 165/165/165 167/167/167
f 168/168/168 166/166/166 167/167/167
f 168/168/168 167/167/167 169/169/169
f 170/170/170 168/168/168 169/169/169
f 170/170/170 169/169/169 171/171/171
f 172/172/172 170/170/170 171/171/171
f 172/172/172 171/171/171 173/173/173
f 174/174/174 172/172/172 173/173/173
f 174/174/174 173/173/173 175/175/175
f 176/176/176 174/174/174 175/175/175
f 176/176/176 175/175/175 177/177/177
f 178/178/178 176/176/176 177/177/177
f 178/178/178 177/177/177 179/179/179
f 180/180/180 178/178/178 179/179/179
f 180/180/180 179/179/179 181/181/181
f 182/182/182 180/180/180 181/181/181
f 182/182/182 181/181/181 183/183/183
f 184/184/184 182/182/182 183/183/183
f 184/184/184 183/183/183 185/185/185
f 186/186/186 184/184/184 185/185/185
f 186/186/186 185/185/185 187/187/187
f 188/188/188 186/186/186 187/187/187
f 188/188/188 187/187/187 189/189/189
f 190/190/190 188/188/188 189/189/189
f 190/190/190 189/189/189 191/191/191
f 192/192/192 190/190/190 191/191/191
f 192/192/192 191/191/191 193/193/193
f 194/194/194 192/192/192 193/193/193
f 194/194/194 193/193/193 195/195/195
f 196/196/196 194/194/194 195/195/195
